<svg width="300" height="300" xmlns="http://www.w3.org/2000/svg">
 <g>
  <title>Layer 1</title>
  <circle fill="#fff" stroke="none" cx="50%" cy="50%" id="svg_1" r="145"/>
  <circle fill="#000000" stroke="none" cx="50%" cy="50%" id="svg_2" r="130" />
    <path stroke="#f3f" stroke-width="0" fill="white" stroke-linecap="butt" 
    d="M34,230 C55,180 70,111 65,35 
    L85,25
    C90,70 120,120 140,140 
    C165,100 190,50 195,20
    L215,30
    C205,100 220,190 240,250
    L200,280
    C205,240 200,150 190,125
    C175,125 150,147 140,160
    C135,153 115,135 90,130
    C80,150 70,200 70,260
    Z" />
  <path stroke="#f2f" stroke-width="0" fill="red" stroke-linecap="butt" 
    d="M100,150 
    C112,155 120,160 128,168
    C120,165 110,165 95,170
    C90,160 95,150 100,150
    Z"/>

<path stroke="#f2f" stroke-width="0" fill="red" stroke-linecap="butt" 
    d="M152,168 
    C160,160 170,155 180,150
    C185,155 185,165 183,170
    C170,167 160,165 152,168
    Z"/>
</g>
</svg>